<?xml version="1.0" standalone="no"?>
<!DOCTYPE svg PUBLIC "-//W3C//DTD SVG 20010904//EN"
 "http://www.w3.org/TR/2001/REC-SVG-20010904/DTD/svg10.dtd">
<svg version="1.0" xmlns="http://www.w3.org/2000/svg"
 width="272.000000pt" height="272.000000pt" viewBox="0 0 272.000000 272.000000"
 preserveAspectRatio="xMidYMid meet">
<metadata>
Created by potrace 1.14, written by Peter Selinger 2001-2017
</metadata>
<g transform="translate(0.000000,272.000000) scale(0.100000,-0.100000)"
fill="#000000" stroke="none">
<path d="M1258 2705 c-2 -2 -27 -6 -55 -9 -129 -14 -277 -55 -402 -111 l-59
-27 -1 -285 c0 -157 -3 -288 -6 -291 -2 -3 -135 -5 -293 -4 l-289 1 -26 -57
c-25 -58 -66 -164 -72 -192 -17 -69 -36 -165 -42 -210 -13 -99 -8 -303 11
-396 2 -12 7 -39 10 -60 7 -45 33 -131 47 -156 5 -10 9 -22 9 -28 0 -5 14 -40
30 -77 l30 -68 291 1 c159 0 292 -3 294 -6 3 -4 5 -136 5 -293 l1 -285 57 -25
c67 -30 111 -48 132 -52 8 -2 60 -15 115 -29 55 -14 123 -29 150 -32 66 -10
257 -10 320 -1 110 16 117 17 245 52 49 13 83 26 148 55 66 31 72 36 73 64 1
17 2 148 3 291 l1 260 280 2 c154 0 285 2 291 2 7 1 19 20 29 44 9 23 22 56
30 72 34 79 70 209 80 290 3 22 7 56 10 75 6 43 7 246 1 280 -3 14 -7 47 -11
74 -3 27 -8 53 -10 56 -2 4 -7 22 -10 40 -8 47 -40 142 -78 232 l-32 77 -281
-1 c-155 0 -286 2 -291 5 -5 3 -9 128 -9 287 1 177 -3 285 -9 290 -14 11 -152
69 -179 75 -11 2 -39 9 -61 15 -22 6 -56 15 -75 19 -19 5 -42 11 -50 14 -38
14 -340 33 -352 22z m322 -37 c121 -25 220 -52 290 -80 106 -43 95 -5 95 -323
-1 -154 1 -285 3 -292 3 -9 71 -12 270 -12 147 0 277 0 289 0 27 -1 43 -30 88
-156 53 -147 75 -269 77 -428 3 -134 -13 -252 -51 -394 -15 -57 -81 -217 -91
-223 -5 -3 -137 -5 -294 -5 -157 0 -287 -2 -287 -5 -1 -3 -2 -134 -3 -292 -1
-158 -3 -289 -6 -291 -25 -21 -208 -91 -266 -101 -16 -3 -45 -10 -64 -16 -78
-23 -296 -32 -425 -18 -83 10 -285 63 -372 100 -68 28 -73 32 -74 61 0 18 0
145 0 282 0 138 -2 257 -4 265 -4 13 -45 15 -300 15 l-295 0 -26 65 c-15 36
-30 74 -34 85 -13 30 -44 128 -46 145 -2 8 -6 35 -10 60 -4 25 -9 56 -11 70
-3 14 -6 86 -7 160 -3 163 16 293 66 439 12 36 23 68 23 71 5 25 50 110 59
110 6 1 140 1 298 1 l288 0 -1 227 c0 125 0 257 0 293 l1 65 48 22 c240 109
540 147 772 100z"/>
<path d="M1235 2562 c-68 -6 -234 -46 -291 -68 l-61 -25 -1 -311 c-1 -171 -4
-313 -6 -315 -3 -3 -144 -5 -315 -5 l-309 0 -21 -51 c-25 -63 -58 -194 -67
-262 -18 -138 -5 -395 20 -395 27 0 203 95 263 143 111 88 202 195 258 306
l37 73 42 -7 c59 -11 196 -13 232 -3 18 4 34 16 38 25 3 10 15 32 25 50 11 17
50 90 86 162 50 98 70 128 82 124 8 -3 56 -47 107 -98 102 -103 204 -188 216
-180 5 3 16 25 26 50 21 57 41 58 96 5 23 -21 45 -37 49 -34 4 2 11 -1 14 -7
24 -38 369 -137 525 -151 33 -3 36 -1 48 37 10 28 12 63 7 115 -4 41 -7 80 -7
87 -1 9 -63 11 -245 10 -155 -1 -244 2 -246 8 -2 6 -3 148 -2 318 l0 307 -50
19 c-131 49 -259 73 -410 75 -60 1 -123 0 -140 -2z m354 -350 c17 -15 33 -51
36 -77 3 -27 -21 -69 -49 -86 -44 -27 -86 -24 -125 9 -27 22 -32 34 -33 69 -1
71 48 117 115 108 21 -3 46 -13 56 -23z"/>
<path d="M1470 2177 c-21 -34 -21 -63 1 -85 36 -40 101 -23 114 31 15 57 -84
104 -115 54z"/>
<path d="M1214 1828 c-63 -128 -141 -262 -218 -376 -72 -107 -73 -110 -44
-101 29 8 131 18 238 23 36 2 58 11 100 43 67 50 166 144 208 199 l32 42 -73
60 c-39 33 -100 87 -135 121 -35 33 -65 61 -67 61 -2 0 -21 -33 -41 -72z"/>
<path d="M2394 1814 c8 -32 9 -139 1 -179 -16 -86 -46 -144 -101 -198 -95 -94
-233 -141 -474 -161 -171 -15 -427 -112 -528 -201 -25 -22 -58 -60 -73 -84
-25 -39 -28 -51 -25 -110 3 -69 17 -104 67 -177 42 -62 152 -167 257 -246 101
-75 291 -198 307 -198 7 0 10 108 10 310 0 171 2 311 5 311 3 1 143 2 312 3
187 1 311 5 316 11 9 10 47 118 58 166 61 265 49 483 -43 735 -13 38 -17 41
-55 42 -38 2 -40 1 -34 -24z"/>
<path d="M1636 1704 c-26 -68 -147 -213 -245 -294 -45 -37 -50 -49 -23 -48 9
0 51 -3 92 -8 93 -10 366 -10 440 -1 131 17 219 46 297 96 58 37 80 58 71 66
-2 2 -19 7 -38 10 -33 5 -112 20 -170 31 -123 24 -291 88 -370 141 -41 27 -46
28 -54 7z"/>
<path d="M755 1493 c-69 -140 -244 -292 -458 -400 -51 -25 -94 -47 -96 -49 -7
-6 40 -143 52 -151 6 -4 71 -8 144 -8 l132 -1 -1 26 c-1 35 21 126 42 173 27
61 91 132 158 178 71 48 127 106 193 199 80 113 82 105 -31 106 l-98 2 -37
-75z"/>
<path d="M1127 1304 c-1 -1 -31 -4 -67 -8 -201 -18 -344 -93 -413 -215 -18
-31 -32 -58 -33 -61 0 -3 -6 -31 -13 -62 -7 -32 -10 -61 -8 -65 3 -5 67 -8
142 -8 75 1 139 -3 142 -8 3 -5 5 -147 5 -316 l0 -308 52 -19 c28 -10 53 -19
56 -19 3 -1 25 -7 50 -14 25 -7 54 -15 65 -17 11 -2 31 -6 45 -9 37 -8 160
-16 160 -12 0 3 -35 40 -78 84 -281 286 -369 537 -258 738 34 62 58 90 127
146 56 46 187 118 252 139 44 14 48 25 10 26 -122 6 -234 10 -236 8z"/>
<path d="M1236 1141 c-121 -69 -201 -155 -228 -244 -33 -111 68 -309 321 -627
89 -111 88 -111 150 -105 60 5 94 11 156 26 22 5 51 12 65 15 14 3 29 9 33 13
4 4 -33 34 -83 65 -49 32 -129 88 -177 125 -365 283 -441 508 -239 704 33 31
58 57 55 57 -2 -1 -26 -13 -53 -29z"/>
</g>
</svg>
